<svg xmlns="http://www.w3.org/2000/svg" width="750" height="278" viewBox="0 0 750 278">
<g fill="none" stroke="black" stroke-width="2">
<path d="M 578 91 L 576 93 L 576 95 L 574 97 L 573 97 L 572 98 L 572 100 L 568 104 L 566 104 L 566 107 L 565 108 L 565 110 L 566 111 L 566 113 L 569 116 L 572 116 L 573 115 L 573 113 L 574 112 L 574 111 L 575 110 L 575 109 L 576 108 L 576 107 L 578 105 L 578 104 L 580 102 L 580 101 L 582 99 L 582 98 L 583 97 L 583 93 L 581 91" />
<path d="M 550 23 L 549 24 L 548 24 L 546 26 L 545 26 L 539 32 L 539 33 L 534 38 L 534 39 L 532 41 L 532 42 L 530 44 L 529 44 L 529 45 L 527 47 L 527 48 L 525 50 L 525 51 L 523 53 L 523 54 L 521 56 L 521 57 L 519 59 L 519 60 L 518 61 L 518 62 L 516 64 L 516 65 L 515 66 L 515 67 L 514 68 L 514 69 L 513 70 L 513 72 L 512 73 L 512 75 L 511 76 L 511 77 L 510 78 L 511 79 L 511 80 L 510 81 L 507 78 L 506 78 L 505 77 L 504 77 L 503 76 L 500 76 L 499 75 L 492 75 L 491 76 L 485 76 L 484 77 L 481 77 L 480 78 L 478 78 L 477 79 L 474 79 L 473 80 L 471 80 L 470 81 L 468 81 L 467 82 L 465 82 L 464 83 L 463 83 L 462 84 L 460 84 L 459 85 L 458 85 L 457 86 L 456 86 L 455 87 L 453 87 L 452 88 L 451 88 L 450 89 L 449 89 L 448 90 L 447 90 L 446 91 L 445 91 L 444 92 L 443 92 L 442 93 L 441 93 L 440 94 L 439 94 L 438 95 L 437 95 L 436 96 L 435 96 L 434 97 L 433 97 L 432 98 L 431 98 L 430 99 L 429 99 L 427 101 L 426 101 L 425 102 L 424 102 L 423 103 L 422 102 L 422 101 L 424 99 L 424 98 L 425 97 L 425 93 L 423 91 L 420 91 L 418 93 L 418 95 L 416 97 L 415 97 L 414 98 L 414 100 L 410 104 L 408 104 L 408 107 L 407 108 L 407 110 L 408 111 L 408 112 L 407 113 L 406 113 L 403 116 L 402 116 L 400 118 L 399 118 L 396 121 L 395 121 L 392 124 L 391 124 L 387 128 L 386 128 L 383 131 L 382 130 L 382 128 L 383 127 L 383 124 L 385 122 L 386 122 L 383 119 L 381 119 L 380 118 L 378 118 L 377 119 L 377 120 L 364 133 L 363 133 L 358 138 L 357 138 L 354 141 L 353 141 L 352 142 L 351 142 L 350 143 L 346 143 L 345 144 L 344 144 L 342 146 L 341 145 L 341 144 L 344 141 L 344 140 L 345 139 L 345 138 L 347 136 L 347 135 L 348 134 L 348 133 L 351 130 L 351 128 L 352 127 L 352 126 L 353 125 L 353 122 L 354 121 L 354 118 L 352 116 L 347 116 L 346 117 L 342 117 L 341 118 L 340 118 L 339 119 L 337 119 L 336 120 L 335 120 L 334 121 L 333 121 L 331 123 L 330 123 L 324 129 L 323 129 L 323 130 L 310 143 L 309 142 L 300 142 L 299 143 L 298 143 L 297 142 L 297 138 L 298 137 L 298 136 L 299 135 L 299 134 L 300 133 L 300 132 L 301 131 L 301 129 L 302 128 L 302 127 L 303 126 L 303 124 L 304 123 L 304 120 L 303 119 L 303 118 L 302 117 L 301 117 L 300 116 L 298 116 L 296 118 L 295 118 L 294 119 L 293 119 L 292 120 L 291 120 L 290 121 L 289 120 L 289 119 L 290 118 L 290 114 L 287 114 L 286 113 L 284 113 L 283 114 L 282 114 L 281 115 L 281 118 L 280 119 L 278 119 L 278 120 L 279 121 L 279 123 L 277 125 L 277 126 L 271 132 L 271 133 L 270 134 L 269 134 L 267 136 L 267 137 L 262 142 L 261 142 L 259 144 L 258 144 L 257 145 L 256 145 L 255 146 L 249 146 L 248 147 L 242 147 L 241 146 L 239 146 L 237 144 L 237 143 L 242 138 L 243 138 L 246 135 L 247 135 L 252 130 L 253 130 L 260 123 L 260 122 L 262 120 L 262 119 L 263 118 L 263 115 L 259 111 L 257 111 L 256 112 L 255 112 L 254 113 L 253 113 L 252 114 L 251 114 L 250 115 L 249 115 L 247 117 L 246 117 L 238 125 L 238 126 L 236 128 L 236 129 L 234 131 L 234 132 L 233 133 L 233 134 L 232 135 L 232 136 L 231 137 L 231 139 L 230 140 L 230 141 L 231 142 L 230 143 L 230 145 L 229 146 L 228 146 L 227 145 L 227 142 L 228 141 L 228 138 L 229 137 L 229 135 L 230 134 L 230 132 L 231 131 L 231 129 L 232 128 L 232 126 L 233 125 L 233 123 L 234 122 L 234 119 L 235 118 L 235 117 L 233 115 L 228 115 L 228 117 L 226 119 L 225 119 L 223 121 L 223 122 L 219 126 L 218 125 L 218 124 L 219 123 L 219 122 L 220 121 L 220 120 L 221 119 L 221 118 L 226 113 L 227 113 L 232 108 L 233 108 L 234 109 L 234 106 L 235 105 L 236 105 L 236 104 L 242 98 L 242 97 L 244 95 L 245 95 L 246 94 L 246 93 L 251 88 L 251 87 L 252 86 L 253 86 L 253 85 L 256 82 L 256 81 L 261 76 L 261 75 L 266 70 L 266 69 L 269 66 L 269 65 L 271 63 L 271 62 L 272 61 L 272 60 L 273 59 L 273 58 L 274 57 L 274 56 L 275 55 L 275 54 L 276 53 L 276 49 L 275 48 L 275 47 L 274 46 L 273 46 L 271 44 L 270 45 L 268 45 L 267 46 L 266 46 L 265 47 L 264 47 L 250 61 L 250 62 L 249 63 L 249 64 L 247 66 L 246 66 L 246 67 L 244 69 L 244 70 L 243 71 L 243 72 L 240 75 L 240 76 L 239 77 L 239 78 L 237 80 L 237 81 L 236 82 L 236 83 L 234 85 L 234 86 L 233 87 L 233 88 L 232 89 L 232 90 L 230 92 L 230 93 L 229 94 L 229 95 L 228 96 L 228 97 L 226 99 L 226 100 L 225 101 L 225 102 L 224 103 L 224 104 L 223 105 L 223 106 L 221 108 L 221 109 L 220 110 L 220 111 L 211 120 L 211 121 L 210 122 L 209 122 L 200 131 L 199 131 L 195 135 L 194 135 L 191 138 L 190 138 L 188 140 L 187 140 L 185 142 L 184 142 L 183 143 L 179 143 L 178 142 L 177 143 L 176 143 L 175 144 L 175 146 L 174 147 L 172 147 L 171 148 L 168 148 L 167 149 L 163 149 L 162 150 L 155 150 L 154 151 L 131 151 L 130 150 L 127 150 L 126 149 L 121 149 L 120 148 L 118 148 L 117 147 L 116 147 L 115 146 L 114 146 L 112 144 L 111 144 L 110 143 L 109 143 L 102 136 L 102 135 L 99 132 L 99 131 L 98 130 L 98 127 L 97 126 L 97 122 L 96 121 L 96 113 L 97 112 L 97 107 L 98 106 L 98 104 L 99 103 L 99 101 L 100 100 L 100 98 L 101 97 L 101 96 L 102 95 L 102 94 L 104 92 L 104 91 L 105 90 L 105 89 L 107 87 L 107 86 L 110 83 L 110 82 L 114 78 L 114 77 L 116 75 L 131 75 L 132 74 L 138 74 L 139 73 L 143 73 L 144 72 L 146 72 L 147 71 L 149 71 L 150 70 L 152 70 L 153 69 L 157 69 L 158 68 L 160 68 L 161 67 L 162 67 L 163 66 L 164 66 L 165 65 L 166 65 L 168 63 L 172 63 L 174 61 L 175 61 L 176 60 L 177 60 L 183 54 L 183 53 L 184 52 L 184 51 L 185 50 L 185 49 L 186 48 L 186 43 L 185 42 L 185 41 L 183 39 L 182 39 L 181 38 L 180 38 L 179 37 L 177 37 L 176 36 L 171 36 L 170 37 L 165 37 L 164 38 L 161 38 L 159 40 L 155 40 L 153 42 L 152 42 L 151 43 L 150 43 L 149 44 L 148 44 L 147 45 L 146 45 L 145 46 L 144 46 L 142 48 L 141 48 L 140 49 L 139 49 L 136 52 L 135 52 L 133 54 L 132 54 L 129 57 L 128 57 L 124 61 L 123 61 L 116 68 L 115 68 L 114 69 L 110 69 L 109 68 L 105 68 L 104 67 L 100 67 L 99 66 L 96 66 L 95 65 L 93 65 L 92 64 L 89 64 L 88 63 L 85 63 L 84 62 L 80 62 L 79 61 L 68 61 L 67 62 L 66 62 L 65 63 L 64 63 L 61 66 L 60 66 L 59 67 L 59 68 L 57 70 L 57 72 L 56 73 L 56 76 L 60 80 L 61 80 L 62 79 L 63 79 L 63 78 L 65 76 L 66 76 L 66 72 L 68 70 L 69 70 L 70 69 L 72 69 L 73 68 L 74 68 L 75 69 L 80 69 L 81 70 L 83 70 L 84 71 L 88 71 L 89 70 L 91 72 L 91 73 L 94 73 L 95 72 L 97 72 L 98 73 L 102 73 L 103 74 L 109 74 L 110 75 L 106 79 L 106 80 L 103 83 L 103 84 L 101 86 L 101 87 L 99 89 L 99 90 L 98 91 L 98 92 L 97 93 L 97 94 L 96 95 L 96 96 L 95 97 L 95 99 L 94 100 L 94 102 L 93 103 L 93 106 L 92 107 L 92 111 L 91 112 L 91 122 L 92 123 L 92 127 L 93 128 L 93 131 L 94 132 L 94 135 L 109 150 L 111 150 L 112 151 L 113 151 L 115 153 L 117 153 L 118 154 L 120 154 L 121 155 L 132 155 L 133 156 L 151 156 L 152 155 L 160 155 L 161 154 L 165 154 L 166 153 L 170 153 L 171 152 L 174 152 L 175 151 L 177 153 L 180 153 L 181 152 L 182 152 L 183 151 L 184 151 L 185 150 L 186 150 L 188 148 L 189 148 L 192 145 L 193 145 L 197 141 L 198 141 L 203 136 L 204 136 L 206 134 L 207 135 L 207 136 L 206 137 L 206 138 L 205 139 L 205 140 L 204 141 L 204 142 L 203 143 L 203 144 L 202 145 L 202 146 L 201 147 L 201 148 L 200 149 L 200 150 L 199 151 L 199 152 L 198 153 L 198 154 L 199 155 L 200 155 L 202 157 L 204 157 L 206 155 L 206 154 L 208 152 L 208 151 L 211 148 L 211 147 L 214 144 L 214 143 L 216 141 L 216 140 L 219 137 L 219 136 L 222 133 L 223 134 L 223 135 L 222 136 L 222 138 L 221 139 L 221 141 L 220 142 L 220 149 L 221 150 L 221 151 L 224 154 L 229 154 L 231 152 L 232 152 L 233 151 L 234 151 L 235 152 L 236 152 L 237 153 L 239 153 L 240 154 L 241 153 L 242 153 L 243 154 L 244 153 L 248 153 L 249 152 L 250 152 L 251 153 L 253 153 L 254 152 L 256 152 L 257 153 L 258 153 L 259 152 L 260 152 L 265 147 L 266 148 L 266 149 L 265 150 L 265 151 L 268 154 L 271 154 L 273 152 L 273 151 L 274 150 L 274 149 L 276 147 L 276 146 L 277 145 L 277 144 L 278 143 L 278 142 L 280 140 L 280 139 L 290 129 L 291 129 L 293 127 L 294 127 L 295 128 L 294 129 L 294 130 L 293 131 L 293 132 L 292 133 L 292 135 L 291 136 L 291 138 L 290 139 L 290 144 L 289 145 L 290 146 L 290 147 L 293 150 L 293 152 L 292 153 L 292 154 L 291 155 L 291 156 L 290 157 L 290 160 L 289 161 L 289 164 L 288 165 L 288 170 L 289 171 L 289 172 L 288 173 L 287 172 L 285 172 L 284 171 L 283 171 L 282 170 L 280 170 L 279 169 L 277 169 L 276 168 L 274 168 L 273 167 L 271 167 L 270 166 L 268 166 L 267 165 L 264 165 L 263 164 L 260 164 L 259 163 L 255 163 L 254 162 L 249 162 L 248 161 L 225 161 L 224 162 L 221 162 L 220 163 L 218 163 L 217 164 L 215 164 L 214 165 L 213 165 L 211 167 L 210 167 L 208 169 L 207 169 L 199 177 L 199 178 L 197 180 L 197 181 L 195 183 L 195 184 L 194 185 L 194 187 L 193 188 L 193 189 L 192 190 L 192 191 L 191 192 L 191 196 L 189 198 L 190 198 L 191 199 L 191 202 L 192 203 L 192 208 L 193 209 L 193 211 L 194 212 L 194 214 L 195 215 L 195 216 L 196 217 L 196 218 L 197 219 L 197 220 L 198 221 L 198 222 L 200 224 L 200 225 L 201 226 L 200 227 L 202 229 L 203 229 L 210 236 L 212 236 L 213 237 L 215 237 L 216 238 L 217 238 L 218 239 L 220 239 L 221 240 L 224 240 L 225 241 L 239 241 L 240 240 L 244 240 L 245 239 L 247 239 L 248 238 L 249 238 L 250 237 L 251 237 L 252 236 L 253 236 L 254 235 L 255 235 L 256 234 L 257 234 L 259 232 L 261 232 L 264 229 L 265 229 L 268 226 L 269 226 L 274 221 L 275 221 L 302 194 L 302 193 L 305 190 L 306 190 L 307 191 L 307 192 L 308 191 L 309 191 L 311 193 L 311 194 L 313 194 L 315 196 L 316 196 L 319 199 L 320 199 L 321 200 L 322 200 L 326 204 L 327 204 L 330 207 L 331 207 L 332 208 L 333 208 L 335 210 L 336 210 L 337 211 L 338 211 L 340 213 L 341 213 L 342 214 L 343 214 L 345 216 L 346 216 L 348 218 L 348 219 L 349 219 L 350 218 L 351 219 L 352 219 L 353 220 L 354 220 L 355 221 L 356 221 L 358 223 L 359 223 L 360 224 L 361 224 L 362 225 L 363 225 L 364 226 L 365 226 L 366 227 L 367 227 L 368 228 L 370 228 L 371 229 L 372 229 L 373 230 L 374 230 L 375 231 L 377 231 L 378 232 L 379 232 L 380 233 L 381 233 L 382 234 L 383 234 L 384 235 L 386 235 L 387 236 L 389 236 L 390 237 L 392 237 L 393 238 L 395 238 L 396 239 L 398 239 L 399 240 L 401 240 L 402 241 L 405 241 L 406 242 L 409 242 L 410 243 L 413 243 L 414 244 L 417 244 L 418 245 L 422 245 L 423 246 L 427 246 L 428 247 L 434 247 L 435 248 L 443 248 L 444 249 L 474 249 L 475 248 L 483 248 L 484 247 L 491 247 L 492 246 L 495 246 L 496 245 L 499 245 L 500 244 L 501 244 L 502 243 L 505 243 L 506 242 L 507 242 L 508 241 L 509 241 L 510 240 L 513 240 L 516 237 L 517 237 L 524 230 L 524 229 L 525 228 L 525 227 L 526 226 L 526 225 L 527 224 L 527 222 L 528 221 L 528 211 L 527 210 L 527 208 L 526 207 L 526 205 L 525 204 L 525 203 L 524 202 L 524 201 L 522 199 L 522 198 L 515 191 L 514 191 L 511 188 L 510 188 L 508 186 L 507 186 L 506 185 L 505 185 L 504 184 L 503 184 L 502 183 L 501 183 L 500 182 L 498 182 L 497 181 L 495 181 L 494 180 L 492 182 L 492 186 L 493 186 L 494 187 L 494 189 L 495 188 L 497 188 L 498 189 L 500 189 L 502 191 L 504 191 L 505 192 L 506 192 L 510 196 L 511 196 L 514 199 L 514 200 L 519 205 L 519 206 L 520 207 L 520 208 L 521 209 L 521 211 L 522 212 L 522 214 L 521 215 L 521 223 L 520 224 L 520 225 L 517 228 L 517 229 L 515 231 L 514 231 L 512 233 L 511 233 L 509 235 L 508 235 L 507 236 L 505 236 L 504 237 L 503 237 L 502 238 L 501 238 L 500 239 L 498 239 L 497 240 L 494 240 L 493 241 L 490 241 L 489 242 L 487 242 L 486 241 L 484 243 L 478 243 L 477 244 L 442 244 L 441 243 L 434 243 L 433 242 L 427 242 L 426 241 L 422 241 L 421 240 L 417 240 L 416 239 L 413 239 L 412 238 L 409 238 L 408 237 L 406 237 L 405 236 L 402 236 L 401 235 L 399 235 L 398 234 L 396 234 L 395 233 L 393 233 L 392 232 L 391 232 L 390 231 L 388 231 L 386 229 L 384 229 L 383 228 L 381 228 L 380 227 L 379 227 L 378 226 L 377 226 L 375 224 L 373 224 L 372 223 L 370 223 L 369 222 L 368 222 L 366 220 L 363 220 L 361 218 L 360 218 L 359 217 L 358 217 L 357 216 L 356 216 L 355 215 L 354 215 L 352 213 L 351 213 L 349 211 L 348 211 L 347 210 L 346 210 L 344 208 L 343 208 L 341 206 L 340 206 L 339 205 L 338 205 L 336 203 L 335 203 L 333 201 L 332 201 L 330 199 L 329 199 L 326 196 L 325 196 L 322 193 L 321 193 L 319 191 L 318 191 L 316 189 L 316 188 L 318 186 L 319 186 L 320 187 L 321 187 L 321 185 L 322 184 L 324 184 L 325 183 L 326 183 L 328 181 L 329 181 L 330 180 L 331 180 L 332 179 L 333 179 L 336 176 L 337 176 L 338 175 L 339 175 L 343 171 L 344 171 L 350 165 L 351 165 L 353 163 L 354 163 L 363 154 L 364 154 L 370 148 L 371 148 L 374 145 L 375 146 L 375 148 L 376 149 L 376 150 L 380 154 L 381 154 L 382 155 L 389 155 L 390 154 L 397 154 L 398 153 L 401 153 L 402 152 L 404 152 L 405 153 L 406 153 L 407 152 L 408 152 L 413 147 L 414 148 L 414 149 L 413 150 L 413 151 L 416 154 L 419 154 L 421 152 L 421 151 L 422 150 L 422 149 L 424 147 L 424 146 L 425 145 L 425 144 L 426 143 L 426 142 L 428 140 L 428 139 L 438 129 L 439 129 L 441 127 L 442 127 L 443 128 L 442 129 L 442 130 L 441 131 L 441 132 L 440 133 L 440 135 L 439 136 L 439 138 L 438 139 L 438 144 L 437 145 L 438 146 L 438 147 L 443 152 L 451 152 L 452 151 L 454 151 L 455 150 L 456 150 L 458 148 L 458 143 L 457 142 L 456 142 L 455 143 L 453 143 L 452 144 L 449 144 L 448 145 L 447 144 L 446 144 L 445 143 L 445 138 L 446 137 L 446 136 L 447 135 L 447 134 L 448 133 L 448 132 L 449 131 L 449 129 L 450 128 L 450 127 L 451 126 L 451 124 L 452 123 L 452 120 L 451 119 L 451 118 L 450 117 L 449 117 L 448 116 L 446 116 L 444 118 L 443 118 L 442 119 L 441 119 L 440 120 L 439 120 L 438 121 L 437 120 L 437 119 L 438 118 L 438 114 L 435 114 L 434 113 L 432 113 L 431 114 L 430 114 L 429 115 L 429 118 L 428 119 L 426 119 L 426 120 L 427 121 L 427 123 L 425 125 L 425 126 L 419 132 L 419 133 L 418 134 L 417 134 L 415 136 L 415 137 L 410 142 L 409 142 L 408 143 L 404 143 L 403 144 L 402 144 L 401 145 L 400 145 L 399 146 L 397 146 L 396 145 L 396 144 L 397 143 L 397 141 L 398 140 L 398 139 L 399 138 L 399 137 L 401 135 L 401 134 L 406 129 L 407 129 L 411 125 L 411 124 L 410 123 L 410 121 L 408 119 L 408 118 L 410 116 L 414 116 L 415 115 L 415 114 L 418 111 L 419 111 L 420 110 L 421 110 L 423 108 L 424 108 L 425 107 L 426 107 L 428 105 L 429 105 L 430 104 L 431 104 L 432 103 L 433 103 L 434 102 L 435 102 L 437 100 L 438 100 L 439 99 L 440 99 L 441 98 L 442 98 L 443 97 L 444 97 L 445 96 L 446 96 L 447 95 L 448 95 L 449 94 L 450 94 L 451 93 L 452 93 L 453 92 L 454 92 L 455 91 L 457 91 L 458 90 L 459 90 L 460 89 L 462 89 L 463 88 L 465 88 L 466 87 L 468 87 L 469 86 L 471 86 L 472 85 L 474 85 L 475 84 L 477 84 L 478 83 L 480 83 L 481 82 L 487 82 L 488 81 L 496 81 L 497 82 L 498 82 L 499 83 L 502 83 L 504 85 L 506 85 L 509 82 L 510 83 L 510 84 L 509 85 L 509 87 L 510 88 L 510 92 L 513 95 L 518 95 L 520 93 L 520 91 L 521 90 L 521 85 L 520 84 L 520 83 L 519 82 L 519 79 L 520 78 L 520 76 L 521 75 L 521 73 L 522 72 L 522 70 L 523 69 L 523 68 L 524 67 L 524 65 L 525 64 L 525 63 L 527 61 L 527 60 L 529 58 L 529 57 L 531 55 L 531 54 L 532 53 L 532 52 L 534 50 L 534 49 L 535 48 L 535 47 L 537 45 L 537 44 L 541 40 L 541 39 L 545 35 L 546 36 L 546 38 L 545 39 L 545 41 L 544 42 L 543 42 L 542 43 L 544 45 L 544 47 L 543 48 L 543 49 L 542 50 L 542 53 L 541 54 L 541 55 L 540 56 L 540 59 L 539 60 L 539 61 L 538 62 L 538 63 L 537 64 L 537 66 L 536 67 L 536 69 L 535 70 L 535 72 L 534 73 L 534 75 L 533 76 L 533 77 L 532 78 L 532 79 L 531 80 L 531 81 L 530 82 L 530 83 L 529 84 L 529 86 L 528 87 L 528 88 L 527 89 L 527 91 L 526 92 L 526 93 L 525 94 L 525 95 L 524 96 L 524 97 L 523 98 L 523 99 L 522 100 L 522 101 L 521 102 L 521 103 L 520 104 L 520 105 L 519 106 L 519 107 L 518 108 L 518 109 L 516 111 L 516 112 L 515 113 L 515 114 L 514 115 L 514 116 L 513 117 L 513 119 L 512 120 L 512 121 L 511 122 L 511 123 L 509 125 L 509 126 L 508 127 L 508 129 L 507 130 L 507 131 L 506 132 L 506 134 L 504 136 L 504 138 L 503 139 L 503 140 L 501 142 L 500 142 L 499 143 L 498 143 L 497 144 L 495 144 L 493 146 L 492 146 L 491 147 L 490 147 L 487 150 L 487 151 L 485 153 L 485 154 L 484 155 L 484 166 L 487 169 L 490 169 L 491 168 L 492 168 L 495 165 L 495 164 L 498 161 L 498 160 L 500 158 L 500 157 L 501 156 L 501 154 L 504 151 L 504 149 L 506 147 L 514 147 L 515 146 L 516 146 L 517 147 L 520 147 L 521 148 L 522 148 L 524 150 L 531 150 L 532 151 L 534 151 L 536 153 L 541 153 L 542 154 L 545 154 L 546 155 L 548 155 L 549 156 L 551 156 L 553 158 L 558 158 L 559 159 L 561 159 L 562 160 L 565 160 L 566 161 L 569 161 L 570 162 L 572 162 L 573 163 L 577 163 L 578 164 L 581 164 L 582 165 L 585 165 L 586 166 L 589 166 L 590 167 L 593 167 L 594 168 L 598 168 L 599 169 L 602 169 L 603 170 L 607 170 L 608 171 L 611 171 L 612 172 L 616 172 L 617 173 L 620 173 L 621 174 L 625 174 L 626 175 L 629 175 L 630 176 L 634 176 L 635 177 L 639 177 L 640 178 L 644 178 L 645 179 L 650 179 L 651 180 L 658 180 L 659 181 L 666 181 L 667 182 L 675 182 L 676 183 L 686 183 L 687 184 L 702 184 L 703 185 L 715 185 L 715 180 L 694 180 L 693 179 L 682 179 L 681 178 L 672 178 L 671 177 L 665 177 L 664 176 L 657 176 L 656 175 L 651 175 L 650 174 L 645 174 L 644 173 L 639 173 L 638 172 L 634 172 L 633 171 L 629 171 L 628 170 L 624 170 L 623 169 L 620 169 L 619 168 L 615 168 L 614 167 L 611 167 L 610 166 L 607 166 L 606 165 L 602 165 L 601 164 L 598 164 L 597 163 L 594 163 L 593 162 L 590 162 L 589 161 L 586 161 L 585 160 L 582 160 L 581 159 L 578 159 L 577 158 L 575 158 L 574 157 L 569 157 L 568 156 L 566 156 L 565 155 L 562 155 L 561 154 L 560 154 L 559 153 L 560 152 L 561 152 L 562 151 L 563 151 L 565 153 L 570 153 L 571 152 L 572 152 L 573 151 L 574 151 L 582 143 L 583 144 L 583 145 L 584 146 L 584 147 L 587 150 L 588 150 L 589 151 L 590 151 L 591 152 L 597 152 L 598 153 L 600 153 L 601 152 L 609 152 L 611 154 L 611 152 L 612 151 L 613 151 L 614 150 L 616 150 L 618 152 L 619 152 L 621 154 L 629 154 L 630 153 L 631 153 L 633 151 L 633 148 L 632 147 L 632 146 L 630 146 L 629 147 L 623 147 L 622 146 L 622 145 L 625 142 L 625 141 L 627 139 L 627 138 L 628 137 L 628 136 L 629 135 L 629 132 L 630 131 L 629 130 L 629 128 L 627 126 L 627 125 L 626 124 L 626 123 L 625 122 L 622 122 L 620 120 L 620 118 L 618 120 L 613 120 L 612 121 L 611 121 L 610 122 L 608 122 L 606 124 L 606 126 L 602 130 L 602 131 L 599 134 L 599 135 L 597 137 L 597 138 L 596 139 L 596 141 L 595 142 L 595 144 L 594 145 L 593 145 L 592 144 L 591 144 L 589 142 L 589 136 L 590 135 L 590 133 L 592 131 L 592 130 L 593 129 L 593 128 L 594 127 L 594 126 L 595 125 L 595 124 L 596 123 L 596 120 L 593 117 L 592 117 L 591 116 L 588 119 L 586 119 L 585 120 L 584 120 L 583 121 L 582 121 L 581 122 L 580 122 L 578 124 L 577 124 L 574 127 L 573 127 L 570 130 L 570 131 L 566 135 L 566 136 L 564 138 L 564 139 L 562 141 L 562 143 L 561 144 L 560 144 L 559 145 L 558 145 L 557 146 L 555 146 L 554 145 L 554 144 L 555 143 L 555 141 L 556 140 L 556 139 L 557 138 L 557 137 L 559 135 L 559 134 L 564 129 L 565 129 L 569 125 L 569 124 L 568 123 L 568 121 L 566 119 L 565 120 L 564 119 L 561 119 L 559 121 L 559 122 L 556 125 L 557 126 L 556 127 L 556 128 L 554 130 L 554 131 L 553 132 L 553 133 L 552 134 L 552 135 L 551 136 L 551 137 L 550 138 L 550 139 L 549 140 L 549 141 L 548 142 L 548 143 L 547 144 L 547 149 L 546 150 L 545 150 L 544 149 L 542 149 L 541 148 L 539 148 L 538 147 L 536 147 L 535 146 L 532 146 L 531 145 L 530 145 L 529 144 L 527 144 L 526 143 L 524 143 L 523 142 L 521 142 L 520 141 L 516 141 L 515 140 L 510 140 L 509 139 L 509 138 L 511 136 L 511 134 L 512 133 L 512 132 L 513 131 L 513 130 L 514 129 L 514 127 L 515 126 L 515 124 L 516 123 L 516 122 L 517 121 L 517 120 L 518 119 L 518 118 L 519 117 L 519 116 L 520 115 L 520 114 L 521 113 L 521 112 L 522 111 L 522 110 L 523 109 L 523 108 L 524 107 L 524 106 L 526 104 L 526 102 L 527 101 L 527 100 L 528 99 L 528 98 L 530 96 L 530 95 L 531 94 L 531 93 L 532 92 L 532 91 L 533 90 L 533 89 L 534 88 L 534 87 L 535 86 L 535 84 L 536 83 L 536 82 L 537 81 L 537 78 L 538 77 L 538 76 L 539 75 L 539 74 L 540 73 L 540 72 L 541 71 L 541 70 L 542 69 L 542 68 L 543 67 L 543 64 L 544 63 L 544 61 L 545 60 L 545 59 L 546 58 L 546 56 L 547 55 L 547 53 L 548 52 L 548 49 L 549 48 L 549 46 L 550 45 L 550 44 L 551 43 L 551 41 L 552 40 L 552 38 L 553 37 L 553 35 L 554 34 L 554 31 L 555 30 L 555 26 L 552 23" />
</g>
</svg>