<?xml version="1.0" encoding="UTF-8"?>
<svg version="1.1" xmlns="http://www.w3.org/2000/svg" width="750" height="278">
<path d="M0 0 C247.5 0 495 0 750 0 C750 91.74 750 183.48 750 278 C502.5 278 255 278 0 278 C0 186.26 0 94.52 0 0 Z " fill="#FEFEFE" transform="translate(0,0)"/>
<path d="M0 0 C1.77059744 3.54119487 1.63466939 7.14268894 1 11 C-3.66585395 20.67605136 -13.41440221 24.6426681 -23 28 C-46.94999011 36.28307727 -46.94999011 36.28307727 -58.5546875 35.875 C-64.11791068 35.77928863 -67.58997002 35.76693735 -71.89453125 39.53125 C-74.64976275 42.78321916 -76.87493299 46.31433691 -79 50 C-79.61875 51.06089844 -80.2375 52.12179688 -80.875 53.21484375 C-86.62700548 63.95837321 -88.74015776 75.07210006 -86.375 87.1875 C-83.744522 95.81260472 -78.46946416 101.10495488 -70.83203125 105.62890625 C-66.90471333 107.53026982 -63.29700237 108.3069351 -59 109 C-58.67 109.33 -58.34 109.66 -58 110 C-52.9875796 110.28874901 -47.95768963 110.24282436 -42.9375 110.25 C-41.84344849 110.25350464 -41.84344849 110.25350464 -40.72729492 110.25708008 C-30.21777913 110.26987528 -20.1897259 109.81558216 -10 107 C-9.505 105.02 -9.505 105.02 -9 103 C-7.45505859 103.11601562 -7.45505859 103.11601562 -5.87890625 103.234375 C-1.33632671 102.9598989 0.41515395 101.90432667 4.0625 99.25 C4.6105127 98.85312988 5.15852539 98.45625977 5.72314453 98.04736328 C12.45916837 93.07585375 18.77612082 87.59115259 25 82 C25.73476562 81.3503125 26.46953125 80.700625 27.2265625 80.03125 C30.32602698 77.13659595 32.61159692 74.17703252 34.76171875 70.51953125 C35.54554932 69.19115234 35.54554932 69.19115234 36.34521484 67.8359375 C36.89129395 66.90007812 37.43737305 65.96421875 38 65 C38.54479004 64.06929688 39.08958008 63.13859375 39.65087891 62.1796875 C41.37551125 59.22632349 43.09407756 56.26948082 44.8125 53.3125 C46.64674758 50.16866302 48.48238903 47.02564365 50.31835938 43.8828125 C51.36115368 42.09516512 52.40191517 40.30632824 53.43945312 38.515625 C54.64019358 36.44375911 55.84985696 34.37741392 57.0625 32.3125 C58.03896484 30.63607422 58.03896484 30.63607422 59.03515625 28.92578125 C61.08669725 25.8709021 63.34289582 23.53479303 66 21 C67.11721186 19.71959989 68.22251417 18.42865551 69.3125 17.125 C78.2949018 6.85661443 78.2949018 6.85661443 84.75 4.8125 C88 5 88 5 90.5 6.5625 C92.51912855 9.84358389 91.8520282 11.30183504 91 15 C87.398298 25.14085769 80.67402412 32.40085825 73.57470703 40.23095703 C71.33150977 42.75098917 69.23220547 45.36508956 67.125 48 C64.1219291 51.71258765 60.99178391 55.1232525 57.56640625 58.4453125 C54.59318439 61.3962908 51.73863094 64.43584036 49.9375 68.25 C48.69412865 70.57095985 47.37778231 70.95097839 45 72 C44.29875 72.53625 43.5975 73.0725 42.875 73.625 C41 75 41 75 39 75 C38.731875 75.680625 38.46375 76.36125 38.1875 77.0625 C36.83946694 80.39710809 35.42463702 83.69743237 34 87 C35.31818554 85.56771184 36.62936704 84.12897516 37.9375 82.6875 C39.03384766 81.48673828 39.03384766 81.48673828 40.15234375 80.26171875 C42.17951559 78.05360602 42.17951559 78.05360602 43 75 C45.875 74.8125 45.875 74.8125 49 75 C49.99 76.485 49.99 76.485 51 78 C50.42578125 80.78515625 50.42578125 80.78515625 49.3125 84.0625 C48.74208984 85.79693359 48.74208984 85.79693359 48.16015625 87.56640625 C47.77730469 88.69949219 47.39445313 89.83257812 47 91 C46.40640776 92.83003747 45.821806 94.66303871 45.25 96.5 C44.88648438 97.62921875 44.88648438 97.62921875 44.515625 98.78125 C43.94209697 101.2491585 43.91108566 103.47483281 44 106 C44.1959375 105.18917969 44.391875 104.37835938 44.59375 103.54296875 C47.67335608 92.14046174 53.27718768 82.91006252 63 76 C63.86431641 75.36578125 63.86431641 75.36578125 64.74609375 74.71875 C68.04634319 72.54308444 69.89520251 71.99492915 73.875 72.1875 C77 73 77 73 78 74 C78.60675435 77.10961602 78.54434634 79.16416497 76.7890625 81.859375 C70.07622789 89.73828887 61.87388391 96.32431581 54 103 C54.33 103.99 54.66 104.98 55 106 C63.91879368 106.49625436 71.43398079 106.7703498 78.48242188 100.72949219 C88.28925047 92.29548139 88.28925047 92.29548139 93.25 81.125 C93.1675 80.42375 93.085 79.7225 93 79 C93.99 79 94.98 79 96 79 C96.33 77.35 96.66 75.7 97 74 C100.28696233 73.20046862 101.71023192 72.90341064 105 74 C105.125 79.75 105.125 79.75 104 82 C104.60328125 81.55527344 105.2065625 81.11054687 105.828125 80.65234375 C107.02695312 79.80349609 107.02695312 79.80349609 108.25 78.9375 C109.03890625 78.36902344 109.8278125 77.80054687 110.640625 77.21484375 C113 76 113 76 115.18359375 76.2421875 C117.49656751 77.2071701 118.61361607 77.88394032 120 80 C119.56953843 84.8197582 117.97178831 88.73587505 116 93.125 C113.58163972 98.42221903 113.58163972 98.42221903 112 104 C112.99 103.34 113.98 102.68 115 102 C117.82403124 101.90217964 120.58569044 102.06722219 123.40625 102.22265625 C126.46516941 101.96006829 127.06331523 101.26143374 129 99 C129.66 99 130.32 99 131 99 C131 98.34 131 97.68 131 97 C135.30232558 92.23255814 135.30232558 92.23255814 139 91 C139.68208613 89.6744885 140.34716478 88.34015984 141 87 C147.47039246 80.79338853 155.05732586 76.77309019 164.0625 76.75 C165.70922748 76.81324879 167.35577655 76.88936067 169 77 C170.6759062 82.09754803 169.01128016 86.19798162 167 91 C164.91366989 94.52537775 162.46472602 97.73216101 160 101 C159.19641735 102.12729443 158.39715673 103.25767856 157.6015625 104.390625 C152.63382967 111.46287185 147.48093411 118.31326038 142 125 C140.53797114 126.78865233 139.07959739 128.58029891 137.625 130.375 C136.65433594 131.56222656 136.65433594 131.56222656 135.6640625 132.7734375 C134.15528865 134.79221941 133.03518909 136.71003626 132 139 C147.18084742 134.97964846 159.32567539 124.00887387 171 114 C173.83456505 111.69185417 176.67838349 109.39580935 179.52734375 107.10546875 C182.11157455 104.97096175 182.11157455 104.97096175 184.69140625 102.23828125 C187 100 187 100 189 100 C189.33 98.02 189.66 96.04 190 94 C185.93412199 96.46092617 182.59792897 99.24680882 179.125 102.5 C173.97409746 107.18755299 169.21179654 111.17773751 162 111.25 C161.01 111.1675 160.02 111.085 159 111 C158.34 109.68 157.68 108.36 157 107 C158.94119129 104.48787009 160.08248288 103.9789554 163.23046875 103.17578125 C174.18127927 99.76003621 186.69503572 87.45744643 193 78 C196.4375 78.8125 196.4375 78.8125 200 80 C200.33 80.99 200.66 81.98 201 83 C200.34 83 199.68 83 199 83 C199 85.31 199 87.62 199 90 C199.48355957 89.62713867 199.96711914 89.25427734 200.46533203 88.87011719 C202.68368554 87.16140693 204.90432065 85.45568628 207.125 83.75 C207.88554687 83.16347656 208.64609375 82.57695313 209.4296875 81.97265625 C212.73561554 79.43621146 216.00900895 76.95159872 219.5390625 74.734375 C220.35117187 74.16203125 221.16328125 73.5896875 222 73 C222.33333333 70.5 222.33333333 70.5 222 68 C223.24327524 64.47738681 225.0776062 63.19179535 228 61 C229.2516467 58.91665365 229.2516467 58.91665365 230 57 C230.99 57 231.98 57 233 57 C233.33 55.35 233.66 53.7 234 52 C236.375 51.375 236.375 51.375 239 51 C239.66 51.66 240.32 52.32 241 53 C240.66898318 56.80669345 239.76838944 59.65165606 238 63 C239.04414063 62.39414063 240.08828125 61.78828125 241.1640625 61.1640625 C291.71331826 32.2212895 291.71331826 32.2212895 318 36 C321.5 37.5390625 321.5 37.5390625 324 39 C323.67 40.65 323.34 42.3 323 44 C320.0950245 44.829993 318.53198675 45.21963581 315.69140625 44.046875 C300.46273408 38.12338568 281.10619304 48.13745302 267.25390625 54.1328125 C256.34859629 59.01710979 245.37292144 64.57041641 235.5078125 71.3515625 C233 73 233 73 231 73 C230.67 74.32 230.34 75.64 230 77 C226.535 77.99 226.535 77.99 223 79 C223.99 79.66 224.98 80.32 226 81 C226.1875 84.125 226.1875 84.125 226 87 C225.34 87 224.68 87 224 87 C224 87.66 224 88.32 224 89 C223.25363281 89.38800781 222.50726563 89.77601563 221.73828125 90.17578125 C218.19866255 92.53384392 216.89369089 95.43237347 215.1875 99.1875 C214.87619141 99.84169922 214.56488281 100.49589844 214.24414062 101.16992188 C213.48314436 102.77386784 212.73976848 104.38615348 212 106 C213.5159375 105.319375 213.5159375 105.319375 215.0625 104.625 C217.61942252 103.50950991 219.83163333 102.80048055 222.58203125 102.140625 C226.72785207 100.75710537 228.67900557 98.89153769 231.6875 95.75 C233.05455078 94.35007813 233.05455078 94.35007813 234.44921875 92.921875 C239.22097464 87.66793484 239.22097464 87.66793484 241.25 81.125 C241.1675 80.42375 241.085 79.7225 241 79 C241.99 79 242.98 79 244 79 C244.33 77.35 244.66 75.7 245 74 C248.28696233 73.20046862 249.71023192 72.90341064 253 74 C253.125 79.75 253.125 79.75 252 82 C252.60328125 81.55527344 253.2065625 81.11054687 253.828125 80.65234375 C254.62734375 80.08644531 255.4265625 79.52054687 256.25 78.9375 C257.03890625 78.36902344 257.8278125 77.80054687 258.640625 77.21484375 C261 76 261 76 263.18359375 76.2421875 C265.49656751 77.2071701 266.61361607 77.88394032 268 80 C267.46091156 86.13662341 264.80684913 91.22265956 262.27734375 96.7578125 C260.75563072 100.03947516 260.75563072 100.03947516 261 104 C267.06264222 103.33735914 267.06264222 103.33735914 273 102 C273.33 104.31 273.66 106.62 274 109 C268.66748425 112.5550105 265.429745 113.82964452 259 113 C256.1899654 111.20636089 254.49059532 109.98119065 253 107 C252.35505861 99.90564466 254.31352828 94.52428847 257 88 C248.5313972 94.12562269 243.36190852 99.70817491 238.62109375 108.99609375 C237.25419081 111.52898136 236.28195923 113.28226146 234 115 C231.8125 114.6875 231.8125 114.6875 230 114 C229.67 112.02 229.34 110.04 229 108 C228.35417969 108.79921875 227.70835937 109.5984375 227.04296875 110.421875 C223.1159532 113.74899985 220.30457165 113.92820403 215.3125 114.25 C209.99259888 114.47202902 209.99259888 114.47202902 205 116 C197.92046023 116.58029015 197.92046023 116.58029015 194.125 114.1875 C190 109.94117647 190 109.94117647 190 106 C184.38385913 110.49725787 178.8957013 115.03939614 173.625 119.9375 C168.6518401 124.51822977 163.44178432 128.61828632 158.04296875 132.67578125 C155.92310008 134.29493639 153.89163497 135.92436615 151.8671875 137.65234375 C147.1664539 141.50130954 142.09859456 144.23767568 136 145 C136 145.66 136 146.32 136 147 C132.25 148.125 132.25 148.125 130 147 C133.7548502 151.19240727 138.30624022 154.1216174 142.9375 157.25 C144.20750854 158.11334961 144.20750854 158.11334961 145.50317383 158.99414062 C151.33789082 162.93742902 157.23759827 166.72632491 163.2734375 170.35546875 C165.65651482 171.79282627 167.98435062 173.28886556 170.3125 174.8125 C174.0310162 177.15936737 177.84214122 178.58929791 182 180 C182 180.66 182 181.32 182 182 C182.57878906 182.13664063 183.15757812 182.27328125 183.75390625 182.4140625 C185.87129583 182.966425 187.88499318 183.61902719 189.9375 184.375 C190.58589844 184.60960937 191.23429687 184.84421875 191.90234375 185.0859375 C194 186 194 186 196.1875 187.390625 C221.38730662 201.81051434 255.21314526 204.87269704 283.5390625 204.06933594 C285.50467151 204.01395568 287.47115669 203.98996939 289.4375 203.9765625 C304.23905701 203.42991409 322.00650273 198.20824746 333 188 C336.57099474 182.64350788 336.44844474 176.2782263 336 170 C335.34012875 166.59158871 335.34012875 166.59158871 334 164 C333.01 163.67 332.02 163.34 331 163 C330.13375 161.88625 330.13375 161.88625 329.25 160.75 C325.89545342 156.64999862 322.04209933 153.68069978 317 152 C317 151.34 317 150.68 317 150 C314.98177083 149.83723958 312.96354167 149.67447917 310.9453125 149.51171875 C309 149 309 149 307 146 C307.375 143.3125 307.375 143.3125 308 141 C318.59499611 141.69097801 327.50494013 147.78972651 335 155 C340.68452701 161.9530741 344.65714141 169.30572523 344.3515625 178.4453125 C343.3975928 185.37749229 339.88124315 191.11875685 335 196 C332.1875 197.375 332.1875 197.375 330 198 C330 198.66 330 199.32 330 200 C321.45234972 203.53937074 313.095191 206.28594752 304 208 C302.97777344 208.20625 301.95554687 208.4125 300.90234375 208.625 C257.56184222 215.92445289 212.23078247 204.28838115 174 184 C172.61510009 183.30236716 171.22833331 182.60842952 169.83984375 181.91796875 C162.97951499 178.50267144 156.46577856 174.76358901 150.140625 170.4296875 C148.64716488 169.43223056 147.12141808 168.48218843 145.57421875 167.5703125 C141.80502027 165.27104423 138.3442572 162.58715192 134.81640625 159.9375 C132.0074236 157.90639936 132.0074236 157.90639936 128.71484375 156.375 C126 155 126 155 125 153 C122.84684648 151.69871135 122.84684648 151.69871135 120 152 C117.28709795 154.06102134 115.16006505 156.61878372 112.9375 159.1875 C111.59646324 160.67445098 110.25400004 162.16011667 108.91015625 163.64453125 C108.24773926 164.38525879 107.58532227 165.12598633 106.90283203 165.88916016 C99.47512163 174.12882966 91.64729262 181.36298616 82.71484375 187.94140625 C80.1159697 189.79794901 80.1159697 189.79794901 78.56787109 191.50317383 C75.76052347 194.18331214 72.17717492 195.50617035 68.6875 197.125 C67.56698242 197.66447266 67.56698242 197.66447266 66.42382812 198.21484375 C55.70042662 203.24232084 43.94835351 203.65858377 32.6875 199.9375 C26.75663711 197.59724971 21.43294102 194.65576081 17 190 C17 189.34 17 188.68 17 188 C16.34 187.67 15.68 187.34 15 187 C14.28203333 185.35478084 13.62459968 183.68288367 13 182 C11.72570895 179.16559561 10.42362982 176.3449548 9.12109375 173.5234375 C7.52029561 169.92024727 6.8808361 167.22230919 6.9375 163.3125 C6.94652344 162.50425781 6.95554688 161.69601563 6.96484375 160.86328125 C6.98224609 159.94095703 6.98224609 159.94095703 7 159 C6.34 159 5.68 159 5 159 C7.0123549 146.72463513 13.31437023 135.67420485 23.41796875 128.21484375 C32.39895499 122.54777181 40.67312694 120.43184004 51.25 120.5 C52.29631592 120.50572021 53.34263184 120.51144043 54.4206543 120.51733398 C71.89883777 120.90949388 87.90249839 126.61619079 104 133 C103.98187256 132.3404834 103.96374512 131.6809668 103.94506836 131.00146484 C103.8686555 126.2341759 103.88575812 122.15145116 105.5625 117.625 C106.79334633 114.26615711 107.21115445 112.40863828 106 109 C105.67 108.34 105.34 107.68 105 107 C104.35505861 99.90564466 106.31352828 94.52428847 109 88 C100.5313972 94.12562269 95.36190852 99.70817491 90.62109375 108.99609375 C89.25419081 111.52898136 88.28195923 113.28226146 86 115 C83.8125 114.6875 83.8125 114.6875 82 114 C81.67 112.02 81.34 110.04 81 108 C80.4225 108.804375 79.845 109.60875 79.25 110.4375 C75.13879412 114.54870588 69.47186495 113.91325092 64 114 C63.00484375 114.02707031 62.0096875 114.05414063 60.984375 114.08203125 C57.00971517 114.14175974 53.36137596 114.06339929 49.4375 113.375 C48.2309375 113.189375 48.2309375 113.189375 47 113 C46.34 113.66 45.68 114.32 45 115 C41.5625 114.9375 41.5625 114.9375 38 114 C35.46527972 111.21998421 35.03994819 109.4234508 34.6875 105.6875 C35.03573332 101.5783468 35.96294309 97.98709132 37 94 C36.66266846 94.47832275 36.32533691 94.95664551 35.9777832 95.44946289 C34.42290365 97.65396022 32.86770364 99.8582313 31.3125 102.0625 C30.78205078 102.81466797 30.25160156 103.56683594 29.70507812 104.34179688 C26.4849385 108.90530763 23.25091998 113.45836225 20 118 C17.83125748 117.49396008 16.00032373 117.00016187 14 116 C14.5056435 110.46640844 15.95616868 106.43969425 18.5625 101.5625 C18.89185547 100.92634766 19.22121094 100.29019531 19.56054688 99.63476562 C20.36453248 98.08505424 21.18097666 96.54181678 22 95 C21.35675781 95.54527344 20.71351563 96.09054688 20.05078125 96.65234375 C17.06609378 99.14313143 14.04574369 101.58465861 11 104 C10.19030762 104.6482373 10.19030762 104.6482373 9.36425781 105.30957031 C7.74196858 106.58940851 6.09543066 107.82930994 4.4375 109.0625 C3.44621094 109.81660156 2.45492187 110.57070312 1.43359375 111.34765625 C-2.55874954 113.2688863 -5.07382075 113.1928943 -9.40991211 113.01342773 C-13.58820184 112.99176632 -17.45569543 114.03759399 -21.5 115 C-30.43529088 116.9489841 -38.82629427 117.50738121 -47.9453125 117.08984375 C-49.89983322 117.00437992 -51.8563745 116.96956763 -53.8125 116.9375 C-67.05143475 116.47297597 -76.06249801 112.14494702 -85.32080078 102.86181641 C-91.27066803 96.30664865 -92.99897572 89.62564843 -94 81 C-94.12761719 80.20335938 -94.25523438 79.40671875 -94.38671875 78.5859375 C-95.75845038 62.79578229 -85.41280857 47.52588805 -76 36 C-81.99320151 34.54066252 -87.85845775 33.58490879 -94 33 C-94 32.34 -94 31.68 -94 31 C-94.5878125 31.185625 -95.175625 31.37125 -95.78125 31.5625 C-98 32 -98 32 -101.5 31 C-107.00739101 29.43540028 -112.3963248 30.30888006 -118 31 C-118 32.98 -118 34.96 -118 37 C-118.99 37 -119.98 37 -121 37 C-121.33 37.99 -121.66 38.98 -122 40 C-123.32 40 -124.64 40 -126 40 C-126 39.34 -126 38.68 -126 38 C-126.99 37.67 -127.98 37.34 -129 37 C-128.21271678 31.48901748 -126.19192036 27.86982204 -122 24.25 C-116.83985234 20.37988926 -112.21614082 20.59191914 -106 21 C-102.42390433 21.59722983 -98.94365956 22.45788552 -95.4375 23.375 C-93.66551551 23.8209127 -91.89338125 24.26623067 -90.12109375 24.7109375 C-89.26370605 24.92717773 -88.40631836 25.14341797 -87.52294922 25.36621094 C-86.69037598 25.57536133 -85.85780273 25.78451172 -85 26 C-84.20480957 26.20141602 -83.40961914 26.40283203 -82.59033203 26.61035156 C-77.99674035 27.71374766 -73.74426218 28.58592207 -69 28 C-66.25622239 26.16971668 -66.25622239 26.16971668 -63.875 23.5625 C-58.54480033 18.40658479 -52.97399729 14.17373391 -46.734375 10.13085938 C-45.56003461 9.3651577 -44.39349128 8.58738622 -43.234375 7.79882812 C-30.75600024 -0.67832864 -14.40515131 -8.57449482 0 0 Z " fill="#090909" transform="translate(185,40)"/>
<path d="M0 0 C2.4375 1.375 2.4375 1.375 3.23046875 3.4765625 C3.5067429 7.34440066 2.424117 10.5181298 1.1875 14.125 C0.95369629 14.8358374 0.71989258 15.5466748 0.47900391 16.27905273 C0.01545691 17.68428985 -0.45298595 19.08792321 -0.92675781 20.48974609 C-1.45195048 22.04717227 -1.95890104 23.61073715 -2.4609375 25.17578125 C-3.54815567 28.5601862 -4.72793878 31.82058997 -6.1875 35.0625 C-7.49995878 38.2243325 -8.14972799 40.99026954 -8.5625 44.375 C-9.2225 44.375 -9.8825 44.375 -10.5625 44.375 C-10.665625 45.24125 -10.76875 46.1075 -10.875 47 C-11.60434972 50.58044406 -12.92230575 53.1228907 -14.5625 56.375 C-15.27029716 58.2633494 -15.9568785 60.15975095 -16.625 62.0625 C-19.79714594 70.4576657 -24.10419796 78.21298643 -28.34765625 86.10498047 C-32.69492353 94.22814992 -36.79873811 102.31818857 -39.73828125 111.0703125 C-40.52815464 113.27896322 -41.46894737 115.30250287 -42.5625 117.375 C-41.66724609 117.27058594 -41.66724609 117.27058594 -40.75390625 117.1640625 C-31.83374468 116.6073808 -24.64653865 119.48446549 -16.47998047 122.64404297 C-14.00977296 123.58570343 -11.51240933 124.42840643 -9 125.25 C-7.2984375 125.806875 -7.2984375 125.806875 -5.5625 126.375 C-5.541875 125.323125 -5.52125 124.27125 -5.5 123.1875 C-4.84460861 117.62660338 -1.99967883 113.21225329 0.74609375 108.42578125 C2.21369275 105.77868006 3.39115377 103.20907346 4.4375 100.375 C5.0975 100.375 5.7575 100.375 6.4375 100.375 C6.9325 98.395 6.9325 98.395 7.4375 96.375 C10.22573655 95.3423198 11.3052274 95.32990707 14.1875 96.3125 C14.93 96.663125 15.6725 97.01375 16.4375 97.375 C16.4375 99.355 16.4375 101.335 16.4375 103.375 C15.7775 103.375 15.1175 103.375 14.4375 103.375 C14.4375 104.035 14.4375 104.695 14.4375 105.375 C13.69113281 105.76300781 12.94476562 106.15101563 12.17578125 106.55078125 C8.63616255 108.90884392 7.33119089 111.80737347 5.625 115.5625 C5.31369141 116.21669922 5.00238281 116.87089844 4.68164062 117.54492188 C3.92064436 119.14886784 3.17726848 120.76115348 2.4375 122.375 C5.99162298 121.50886919 7.96654222 120.97021047 10.2734375 118.0546875 C10.78132812 117.12914062 11.28921875 116.20359375 11.8125 115.25 C17.33314507 106.0086576 23.98994471 100.42012306 33.4375 95.375 C34.49324219 94.79105469 34.49324219 94.79105469 35.5703125 94.1953125 C38.18237137 93.04775526 39.76376077 93.5306613 42.4375 94.375 C43.0975 95.035 43.7575 95.695 44.4375 96.375 C44.09972704 100.0843612 42.87988654 102.54055917 40.875 105.625 C38.05763569 110.4420453 38.00060343 113.87010319 38.4375 119.375 C40.4175 120.365 40.4175 120.365 42.4375 121.375 C42.56125 120.84132813 42.685 120.30765625 42.8125 119.7578125 C44.52370795 113.57607379 47.42129878 109.46636119 51.59765625 104.63671875 C53.48882033 102.4947813 53.48882033 102.4947813 54.49609375 100.14453125 C55.4375 98.375 55.4375 98.375 58.4375 97.375 C59.83189664 97.30834624 61.22919875 97.28961801 62.625 97.3125 C63.883125 97.333125 65.14125 97.35375 66.4375 97.375 C66.7675 96.385 67.0975 95.395 67.4375 94.375 C68.4275 95.86 68.4275 95.86 69.4375 97.375 C70.241875 97.643125 71.04625 97.91125 71.875 98.1875 C74.4375 99.375 74.4375 99.375 76.3125 101.9375 C77.79464267 106.46626928 77.9446816 109.83118158 76.4375 114.375 C74.37073793 117.63052021 72.02321687 120.51923437 69.4375 123.375 C70.13617187 123.27960938 70.83484375 123.18421875 71.5546875 123.0859375 C72.46476563 122.97507812 73.37484375 122.86421875 74.3125 122.75 C75.66988281 122.57597656 75.66988281 122.57597656 77.0546875 122.3984375 C78.23417969 122.38683594 78.23417969 122.38683594 79.4375 122.375 C80.0975 123.035 80.7575 123.695 81.4375 124.375 C81.25 126.875 81.25 126.875 80.4375 129.375 C77.33969052 131.44020632 76.4834519 131.66977024 72.9375 131.6875 C71.77734375 131.71263672 71.77734375 131.71263672 70.59375 131.73828125 C67.93415971 131.2901981 67.25397192 130.28654897 65.4375 128.375 C62.31200983 128.12451364 62.31200983 128.12451364 59.4375 128.375 C59.1075 129.365 58.7775 130.355 58.4375 131.375 C58.1075 131.045 57.7775 130.715 57.4375 130.375 C55.29090889 130.33700724 53.14418879 130.30243495 50.99731445 130.28735352 C37.9923025 130.10210383 37.9923025 130.10210383 33.25 125.9375 C30.4375 122.8964447 30.4375 122.8964447 30.4375 120.375 C29.7775 120.375 29.1175 120.375 28.4375 120.375 C28.05851563 121.26445312 28.05851563 121.26445312 27.671875 122.171875 C25.54832872 125.96200191 22.17422679 128.25752148 18.4375 130.375 C14.9375 130.75 14.9375 130.75 12.4375 130.375 C12.4375 129.715 12.4375 129.055 12.4375 128.375 C10.7875 129.035 9.1375 129.695 7.4375 130.375 C43.43985462 139.57986179 79.57689836 148.34994708 116.4375 153.375 C117.14841797 153.47554687 117.85933594 153.57609375 118.59179688 153.6796875 C133.46426634 155.74647199 148.446194 155.99613609 163.4375 156.375 C163.4375 158.025 163.4375 159.675 163.4375 161.375 C150.2939763 161.75823449 137.33673076 161.21399068 124.25 160.0625 C123.21036102 159.9740834 123.21036102 159.9740834 122.14971924 159.88388062 C103.07127854 158.23889581 84.49286123 154.69967721 65.8125 150.5625 C63.76418073 150.11212972 61.7158407 149.66185386 59.66748047 149.21166992 C53.92134953 147.94521957 48.17842259 146.66484365 42.4375 145.375 C41.71473877 145.21261841 40.99197754 145.05023682 40.24731445 144.88293457 C26.30526401 141.74049272 12.57199296 138.09455414 -1.1171875 133.98828125 C-9.62793597 131.4424028 -18.19565141 129.18218625 -26.8359375 127.12109375 C-29.5625 126.375 -29.5625 126.375 -32.03515625 125.2890625 C-36.82272625 123.55754568 -41.69761723 124.10318065 -46.5625 125.375 C-48.85482017 127.94492585 -48.85482017 127.94492585 -49.64453125 130.1328125 C-50.82278399 133.0107575 -52.40077787 135.49829458 -54.0625 138.125 C-54.91328125 139.50945312 -54.91328125 139.50945312 -55.78125 140.921875 C-57.54061125 143.34485497 -58.99114018 144.85789771 -61.5625 146.375 C-64.3125 146.0625 -64.3125 146.0625 -66.5625 145.375 C-66.5625 144.715 -66.5625 144.055 -66.5625 143.375 C-67.2225 143.375 -67.8825 143.375 -68.5625 143.375 C-69.09438669 136.94508091 -69.25575579 131.56478115 -65.39453125 126.16796875 C-61.26328899 122.12481268 -55.43449085 118.375 -49.5625 118.375 C-49.39234375 117.82972656 -49.2221875 117.28445312 -49.046875 116.72265625 C-44.95220011 103.98124769 -38.5697635 92.23980459 -32.51171875 80.34765625 C-26.34751415 68.20554433 -20.40536116 56.00190019 -16.484375 42.92578125 C-15.482247 40.15294403 -14.08421063 37.89396747 -12.5625 35.375 C-10.53305612 30.10512722 -9.11306014 25.06790485 -9.5625 19.375 C-8.9025 19.375 -8.2425 19.375 -7.5625 19.375 C-7.5625 17.395 -7.5625 15.415 -7.5625 13.375 C-14.30930212 20.16518991 -18.84555996 28.13482575 -23.5625 36.375 C-23.92529053 37.00414307 -24.28808105 37.63328613 -24.66186523 38.28149414 C-29.09019233 45.98156393 -33.04852129 53.98510845 -30.9375 63.0625 C-30.34600552 66.71004929 -31.95821587 69.10226037 -33.5625 72.375 C-36.375 72.625 -36.375 72.625 -39.5625 72.375 C-42.23767291 69.61252541 -42.97513449 67.61985554 -42.9375 63.8125 C-42.10314198 40.10282616 -22.21287538 17.69013239 -6.12109375 1.765625 C-3.77781138 -0.32512318 -3.13425741 -0.76445303 0 0 Z " fill="#090909" transform="translate(552.5625,23.625)"/>
<path d="M0 0 C1.97613281 0.00386719 1.97613281 0.00386719 3.9921875 0.0078125 C5.29414063 0.00523437 6.59609375 0.00265625 7.9375 0 C11.65693565 0.12570657 15.19465096 0.55583045 18.8671875 1.1328125 C19.5271875 1.1328125 20.1871875 1.1328125 20.8671875 1.1328125 C26.30355114 1.84190341 26.30355114 1.84190341 28.8046875 3.1328125 C30.93956141 4.31254958 30.93956141 4.31254958 33.8671875 4.4453125 C39.5619858 5.14658278 44.66505552 7.84363219 49.8671875 10.1328125 C51.81100736 10.96793511 53.75688169 11.79814412 55.70288086 12.62817383 C58.42669536 13.79085807 61.14693782 14.96181745 63.8671875 16.1328125 C63.8671875 16.7928125 63.8671875 17.4528125 63.8671875 18.1328125 C65.8471875 18.6278125 65.8471875 18.6278125 67.8671875 19.1328125 C65.37159687 23.79655811 62.09650115 27.38166236 58.4921875 31.1953125 C57.56116211 32.18277466 57.56116211 32.18277466 56.61132812 33.19018555 C41.50299471 49.05968754 23.21213893 67.58389874 0.0546875 68.5078125 C-9.30676038 68.30712572 -16.54265047 65.37549033 -23.37890625 59.01171875 C-27.18504263 54.93432098 -29.7530425 51.21185497 -31.8203125 46.0078125 C-32.23667969 44.97398437 -32.65304688 43.94015625 -33.08203125 42.875 C-35.98069432 35.31045919 -36.1323404 27.99872084 -33.23046875 20.359375 C-28.83283559 11.43890916 -21.98403822 5.65687065 -12.9453125 1.7578125 C-9.9297172 1.08768021 -7.21176541 1.06120894 -4.1328125 1.1328125 C-3.1328125 0.1328125 -3.1328125 0.1328125 0 0 Z " fill="#FDFDFD" transform="translate(233.1328125,167.8671875)"/>
<path d="M0 0 C0 0.66 0 1.32 0 2 C2.97 2 5.94 2 9 2 C9 4.625 9 4.625 8 8 C4.5128159 11.47122445 0.87714523 14.06841046 -4 15 C-4 15.66 -4 16.32 -4 17 C-18.01048989 22.53318186 -30.73331174 26.6203169 -46 26 C-36.55343708 16.25877364 -26.24376344 9.61904137 -14 4 C-12.93845703 3.44699219 -12.93845703 3.44699219 -11.85546875 2.8828125 C-8.24425396 1.16463452 -3.99415652 0 0 0 Z " fill="#FAFAFA" transform="translate(170,43)"/>
<path d="M0 0 C0 3.91676874 -1.34466964 5.14932249 -3.6875 8.25 C-6.14617466 11.52678234 -8.56923363 14.80155478 -10.875 18.1875 C-11.57625 19.115625 -12.2775 20.04375 -13 21 C-13.66 21 -14.32 21 -15 21 C-15.309375 22.0209375 -15.309375 22.0209375 -15.625 23.0625 C-17.45408866 26.97009851 -20.10279034 29.83857939 -23 33 C-27.40938215 32.49607061 -29.78843816 31.0379639 -33 28 C-35.68688563 24.41748582 -35.40046578 20.29299314 -35 16 C-34.09040596 12.03676882 -33.25655248 9.38482872 -31 6 C-28.10229978 5.06020534 -26.30534741 4.93609008 -23.3125 5.5625 C-22.549375 5.706875 -21.78625 5.85125 -21 6 C-20.34 5.34 -19.68 4.68 -19 4 C-16.42578125 3.9453125 -16.42578125 3.9453125 -13.3125 4.125 C-7.55317282 4.24975077 -4.62205046 3.36149125 0 0 Z " fill="#F8F8F8" transform="translate(331,147)"/>
<path d="M0 0 C-0.25690125 3.73577237 -0.54968374 5.53199274 -3.1875 8.2734375 C-4.5796875 9.31371094 -4.5796875 9.31371094 -6 10.375 C-9.55375192 13.11216451 -13.00948167 15.83945773 -16.3125 18.875 C-42.60587352 42.40803715 -42.60587352 42.40803715 -58 46 C-58.66 45.67 -59.32 45.34 -60 45 C-59.28457031 44.11441406 -58.56914062 43.22882813 -57.83203125 42.31640625 C-52.09460709 35.19180562 -46.4315815 28.01678165 -40.875 20.75 C-40.31917236 20.02369385 -39.76334473 19.2973877 -39.19067383 18.54907227 C-37.04728578 15.73656137 -34.96264735 12.94397102 -33 10 C-32.01 10.33 -31.02 10.66 -30 11 C-30.66 12.32 -31.32 13.64 -32 15 C-30.87757732 16.32706955 -30.87757732 16.32706955 -28 16.375 C-19.00012467 16.15549085 -12.40974552 8.93247253 -6.28515625 3.109375 C-2.91666667 0 -2.91666667 0 0 0 Z " fill="#F4F4F4" transform="translate(375,134)"/>
<path d="M0 0 C-1.34543218 4.80304822 -3.44869556 8.51751284 -6.375 12.5 C-6.81054199 13.10094482 -7.24608398 13.70188965 -7.69482422 14.32104492 C-12.34339688 20.63263501 -17.42392064 26.55595917 -22.61328125 32.42529297 C-23.91096375 33.89889369 -25.19056375 35.38836311 -26.46875 36.87890625 C-27.1803125 37.70261719 -27.891875 38.52632812 -28.625 39.375 C-29.54152344 40.43847656 -29.54152344 40.43847656 -30.4765625 41.5234375 C-32 43 -32 43 -34 43 C-32.68448876 38.39571066 -30.90803514 34.81679612 -28 31 C-27.34 31 -26.68 31 -26 31 C-25.90525391 29.98486328 -25.90525391 29.98486328 -25.80859375 28.94921875 C-24.70162637 24.91172903 -22.55851175 22.1295516 -20.0625 18.8125 C-19.57467041 18.15556152 -19.08684082 17.49862305 -18.58422852 16.82177734 C-5.83528678 0 -5.83528678 0 0 0 Z " fill="#F2F2F2" transform="translate(269,54)"/>
<path d="M0 0 C1.67542976 0.28604898 3.34385343 0.61781233 5 1 C6.02888206 4.19585714 6.23963804 5.52217189 4.70703125 8.578125 C4.08183594 9.45984375 3.45664062 10.3415625 2.8125 11.25 C-0.40749322 15.99627 -2.88449925 20.67839873 -5 26 C-6.65 25.67 -8.3 25.34 -10 25 C-10 24.34 -10 23.68 -10 23 C-10.66 23 -11.32 23 -12 23 C-13.21103118 17.67146283 -13.21103118 17.67146283 -12.3125 14.8125 C-10.79534703 12.71738399 -9.06130748 11.54598061 -7 10 C-5.7483533 7.91665365 -5.7483533 7.91665365 -5 6 C-4.01 6 -3.02 6 -2 6 C-1.855625 5.195625 -1.71125 4.39125 -1.5625 3.5625 C-1 1 -1 1 0 0 Z " fill="#0D0D0D" transform="translate(578,91)"/>
<path d="M0 0 C0 3.05985415 -0.35575548 4.0605732 -1.71484375 6.6875 C-2.07126953 7.38617188 -2.42769531 8.08484375 -2.79492188 8.8046875 C-3.17197266 9.52914062 -3.54902344 10.25359375 -3.9375 11 C-4.67752858 12.43660125 -5.41587777 13.87406915 -6.15234375 15.3125 C-6.48226318 15.94800781 -6.81218262 16.58351562 -7.15209961 17.23828125 C-8.12552255 19.16576941 -8.12552255 19.16576941 -9 22 C-11.3125 22.25 -11.3125 22.25 -14 22 C-16.2160741 19.9367586 -16.91037 18.59720859 -17.359375 15.60546875 C-17 13 -17 13 -15.05859375 10.9375 C-14.19363281 10.298125 -13.32867187 9.65875 -12.4375 9 C-11.53128906 8.319375 -10.62507813 7.63875 -9.69140625 6.9375 C-8.80324219 6.298125 -7.91507812 5.65875 -7 5 C-6.26652344 4.46375 -5.53304688 3.9275 -4.77734375 3.375 C-3.19715186 2.23284898 -1.60055788 1.11343157 0 0 Z " fill="#F2F2F2" transform="translate(398,126)"/>
<path d="M0 0 C-3.32955327 7.64626053 -11.53843887 12.80639297 -19 16 C-19.99 16 -20.98 16 -22 16 C-20.95125002 13.37812506 -20.35068687 12.20628639 -17.875 10.75 C-17.25625 10.5025 -16.6375 10.255 -16 10 C-16 9.34 -16 8.68 -16 8 C-13.69921875 6.30859375 -13.69921875 6.30859375 -10.6875 4.4375 C-9.70136719 3.81746094 -8.71523438 3.19742188 -7.69921875 2.55859375 C-5.0734843 1.0424316 -3.0639791 0 0 0 Z " fill="#EDEDED" transform="translate(343,128)"/>
<path d="M0 0 C2.125 0.9375 2.125 0.9375 4 2 C4 2.66 4 3.32 4 4 C4.99 4 5.98 4 7 4 C5.73058503 7.91402949 4.48832306 9.79072873 1 12 C-1.70582788 8.16674383 -2.32613618 5.67461851 -2 1 C-1.34 0.67 -0.68 0.34 0 0 Z " fill="#ECECEC" transform="translate(616,129)"/>
<path d="M0 0 C2.80736541 1.4036827 2.96708362 3.10783413 4 6 C4.33 6.99 4.66 7.98 5 9 C-1.75 10.125 -1.75 10.125 -4 9 C-2.94124926 5.59687262 -1.99097846 2.98646769 0 0 Z " fill="#E2E2E2" transform="translate(606,136)"/>
<path d="M0 0 C0.66 0.33 1.32 0.66 2 1 C-0.46690304 7.01307617 -4.59574414 11.2923631 -9 16 C-9.33 15.34 -9.66 14.68 -10 14 C-8.18975801 8.67506739 -5.18243088 4.73027619 -1 1 C-0.67 0.67 -0.34 0.34 0 0 Z " fill="#E1E1E1" transform="translate(228,112)"/>
<path d="M0 0 C0.66 0.33 1.32 0.66 2 1 C1.744398 2.93956814 1.46995354 4.87665989 1.1875 6.8125 C1.03667969 7.89144531 0.88585937 8.97039062 0.73046875 10.08203125 C-0.01612403 13.06440991 -0.62075684 14.14223479 -3 16 C-2.57910004 10.39538469 -2.08386889 5.27913453 0 0 Z " fill="#E5E5E5" transform="translate(231,131)"/>
<path d="M0 0 C0.66 0.33 1.32 0.66 2 1 C1.21654285 2.17219543 0.42297164 3.33763668 -0.375 4.5 C-0.81585938 5.1496875 -1.25671875 5.799375 -1.7109375 6.46875 C-2.13632812 6.9740625 -2.56171875 7.479375 -3 8 C-3.66 8 -4.32 8 -5 8 C-3.8141763 4.62496331 -2.72426311 2.35277269 0 0 Z " fill="#C3C3C3" transform="translate(496,151)"/>
</svg>
